<svg xmlns="http://www.w3.org/2000/svg" viewBox="0 0 487.56 244.86"><defs><style>.cls-1,.cls-4{fill:#FF7505;}.cls-2{fill:#080706;}.cls-3{fill:#fff;stroke:#fff;stroke-miterlimit:10;}.cls-4{font-size:26.83px;font-family:Helvetica;}.cls-5{letter-spacing:-0.02em;}</style></defs><g id="Layer_2" data-name="Layer 2"><g id="Layer_1-2" data-name="Layer 1"><path class="cls-1" d="M97.5,244.86a23.83,23.83,0,1,1,24-23.78A23.81,23.81,0,0,1,97.5,244.86ZM83.34,220.39c0,3,1.54,5.06,4.14,5.42a4.64,4.64,0,0,0,5.21-4c.29-3.61,2.12-5.19,5.57-5.64a4.42,4.42,0,0,0,4-5.17,4.78,4.78,0,0,0-5.08-4.23A14.36,14.36,0,0,0,83.34,220.39Z"/><path class="cls-2" d="M83.34,220.39a14.36,14.36,0,0,1,13.83-13.65,4.78,4.78,0,0,1,5.08,4.23,4.42,4.42,0,0,1-4,5.17c-3.45.45-5.28,2-5.57,5.64a4.64,4.64,0,0,1-5.21,4C84.88,225.45,83.29,223.36,83.34,220.39Z"/><path class="cls-3" d="M226.14,81.42a7.81,7.81,0,0,0-4.64-5.73,11.39,11.39,0,0,0-4.59-.9A10,10,0,0,0,209,78.44q-3.12,3.65-3.11,11t3.37,10.44a11.07,11.07,0,0,0,7.66,3.06,9.92,9.92,0,0,0,6.9-2.41,10.49,10.49,0,0,0,3.32-6.34h-9.27V87.48h16.68V109H229l-.84-5a19,19,0,0,1-4.35,4,15.37,15.37,0,0,1-8.15,2,16.91,16.91,0,0,1-13-5.52q-5.31-5.53-5.3-15.15t5.35-15.59q5.36-5.86,14.16-5.86,7.63,0,12.27,3.87a14.41,14.41,0,0,1,5.31,9.66Z"/><path class="cls-3" d="M272.12,76H250.93v8.51h19.45v7H250.93v10.3H273.1V109H242.75v-40h29.37Z"/><path class="cls-3" d="M306.19,68.92h12V109h-7.8V81.88q0-1.17,0-3.27c0-1.41,0-2.49,0-3.25L302.9,109h-8.14l-7.53-33.61c0,.76,0,1.84,0,3.25s0,2.49,0,3.27V109h-7.8v-40h12.18L299,100.41Z"/><path class="cls-3" d="M333.61,109H325.3v-40h8.31Z"/><path class="cls-3" d="M345.26,73.1a16.52,16.52,0,0,1,12.32-4.94q10,0,14.62,6.63a14.41,14.41,0,0,1,2.74,7.47h-8.37a11.31,11.31,0,0,0-2.05-4.35q-2.24-2.59-6.63-2.6A8.15,8.15,0,0,0,350.84,79q-2.58,3.67-2.58,10.42T351,99.5a8.55,8.55,0,0,0,6.93,3.36,7.83,7.83,0,0,0,6.56-2.88,12.49,12.49,0,0,0,2.08-4.65h8.31a18,18,0,0,1-5.5,10.65A16,16,0,0,1,358,110.09q-8.55,0-13.44-5.55T339.7,89.27Q339.7,78.79,345.26,73.1Z"/><path class="cls-3" d="M393.08,68.92h9.47L416.72,109h-9.08L405,100.74H390.25L387.54,109h-8.76Zm-.55,24.92h10.26l-5.06-15.76Z"/><path class="cls-3" d="M421.81,68.92h8.37v32.85h20V109H421.81Z"/><path class="cls-3" d="M461.84,96.61a8.08,8.08,0,0,0,1.53,4.1q2.07,2.48,7.13,2.48a15.2,15.2,0,0,0,4.91-.66c2.38-.83,3.58-2.38,3.58-4.64a3.41,3.41,0,0,0-1.76-3.07,18.78,18.78,0,0,0-5.56-1.88l-4.33-1c-4.27-.94-7.19-2-8.79-3.07q-4.05-2.78-4.05-8.67a11.52,11.52,0,0,1,4-8.94q4-3.56,11.64-3.56A17.8,17.8,0,0,1,481,71.11q4.53,3.36,4.75,9.74h-8a5.75,5.75,0,0,0-3.24-5.14,11,11,0,0,0-5-1,9.52,9.52,0,0,0-5.3,1.3,4.15,4.15,0,0,0-2,3.64,3.44,3.44,0,0,0,1.95,3.21,24.51,24.51,0,0,0,5.32,1.66l7,1.66a17.78,17.78,0,0,1,6.92,2.9c2.39,1.89,3.59,4.61,3.59,8.18a11.5,11.5,0,0,1-4.25,9.12q-4.24,3.63-12,3.63-7.9,0-12.44-3.58a11.81,11.81,0,0,1-4.53-9.82Z"/><text class="cls-4" transform="translate(199.79 141.39)"><tspan class="cls-5">W</tspan><tspan x="24.85" y="0">e Create Bonds</tspan></text><path class="cls-1" d="M125.4,79.56a42.89,42.89,0,1,0,43,42.86A42.73,42.73,0,0,0,125.4,79.56Z"/><path class="cls-1" d="M176,32a23.83,23.83,0,1,1,23.89,23.87A23.85,23.85,0,0,1,176,32Zm9.54-.71c-.06,3,1.56,5.1,4.14,5.39a4.74,4.74,0,0,0,5.26-4c.84-4.33,1.1-4.59,5.53-5.54a4.74,4.74,0,0,0,4-5.25,4.59,4.59,0,0,0-4.81-4.18C192.33,17.55,185.66,24,185.5,31.31Z"/><path class="cls-1" d="M65.49,47.65a23.83,23.83,0,1,1,24-23.78A23.82,23.82,0,0,1,65.49,47.65ZM51.33,23.18c-.06,3,1.54,5.06,4.14,5.41a4.61,4.61,0,0,0,5.2-4c.3-3.6,2.12-5.18,5.57-5.64a4.42,4.42,0,0,0,4-5.16,4.78,4.78,0,0,0-5.08-4.23A14.35,14.35,0,0,0,51.33,23.18Z"/><path class="cls-1" d="M215.57,183.25a15.08,15.08,0,1,1,15.21-14.83A15.1,15.1,0,0,1,215.57,183.25Z"/><path class="cls-1" d="M165.83,147.26l2.74-5.55,33,15.54c-.89,1.87-1.72,3.64-2.66,5.61Z"/><path class="cls-1" d="M35.47,127v-9.06H78.69V127Z"/><path class="cls-1" d="M103,80.8l-8.14,5L75.65,49.9,84,45.42Z"/><path class="cls-1" d="M161.69,89.8l-7.49-5.9,24-32.23,7.62,5.73Z"/><path class="cls-1" d="M101.37,193.2c2.33-8.89,4.64-17.76,7-26.78l9.23,2.39c-2.32,8.92-4.63,17.78-7,26.78Z"/><path class="cls-2" d="M185.5,31.31c.16-7.35,6.83-13.76,14.12-13.56a4.59,4.59,0,0,1,4.81,4.18,4.74,4.74,0,0,1-4,5.25c-4.43.95-4.69,1.21-5.53,5.54a4.74,4.74,0,0,1-5.26,4C187.06,36.41,185.44,34.3,185.5,31.31Z"/><path class="cls-2" d="M51.33,23.18A14.35,14.35,0,0,1,65.16,9.53a4.78,4.78,0,0,1,5.08,4.23,4.42,4.42,0,0,1-4,5.16c-3.45.46-5.27,2-5.57,5.64a4.61,4.61,0,0,1-5.2,4C52.87,28.24,51.27,26.15,51.33,23.18Z"/><circle class="cls-1" cx="16.37" cy="122.99" r="16.37"/><path d="M145.33,138.19V117H129.94a7.54,7.54,0,1,0,0,7.84h6.69a12.19,12.19,0,0,1-3.89,7.42,11.64,11.64,0,0,1-8.09,2.84,13,13,0,0,1-9-3.6q-4-3.58-4-12.24t3.64-12.86a11.72,11.72,0,0,1,9.32-4.28,13.43,13.43,0,0,1,5.39,1,11.06,11.06,0,0,1,1.69,1,7.21,7.21,0,0,0-.25,1.87,7.54,7.54,0,1,0,7.54-7.54h-.24Q133.39,94,124.56,94q-10.34,0-16.6,6.88t-6.28,18.27q0,11.28,6.21,17.77a19.88,19.88,0,0,0,15.3,6.46,17.92,17.92,0,0,0,9.55-2.38,22.41,22.41,0,0,0,5.1-4.69l.3,1.76a7.54,7.54,0,1,0,7.19.12Z"/></g></g></svg>