<svg width="75" height="75" viewBox="0 0 75 75" fill="none" xmlns="http://www.w3.org/2000/svg">
<path d="M50 6.25H12.5C9.04822 6.25 6.25 9.04822 6.25 12.5V18.75C6.25 22.2018 9.04822 25 12.5 25H50C53.4518 25 56.25 22.2018 56.25 18.75V12.5C56.25 9.04822 53.4518 6.25 50 6.25Z" stroke="#003471" stroke-width="3" stroke-linecap="round" stroke-linejoin="round"/>
<path d="M31.25 50V43.75C31.25 42.0924 31.9085 40.5027 33.0806 39.3306C34.2527 38.1585 35.8424 37.5 37.5 37.5H62.5C64.1576 37.5 65.7473 36.8415 66.9194 35.6694C68.0915 34.4973 68.75 32.9076 68.75 31.25V21.875C68.75 20.2174 68.0915 18.6277 66.9194 17.4556C65.7473 16.2835 64.1576 15.625 62.5 15.625H56.25" stroke="#003471" stroke-width="3" stroke-linecap="round" stroke-linejoin="round"/>
<path d="M34.375 50H28.125C26.3991 50 25 51.3991 25 53.125V65.625C25 67.3509 26.3991 68.75 28.125 68.75H34.375C36.1009 68.75 37.5 67.3509 37.5 65.625V53.125C37.5 51.3991 36.1009 50 34.375 50Z" stroke="#003471" stroke-width="3" stroke-linecap="round" stroke-linejoin="round"/>
</svg>
