<svg width="75" height="75" viewBox="0 0 75 75" fill="none" xmlns="http://www.w3.org/2000/svg">
<path d="M21.875 62.5H53.125" stroke="#003471" stroke-width="3" stroke-linecap="round" stroke-linejoin="round"/>
<path d="M31.25 62.5C48.4375 54.6875 33.75 42.5 40.625 31.25" stroke="#003471" stroke-width="3" stroke-linecap="round" stroke-linejoin="round"/>
<path d="M29.6875 29.3751C33.125 31.8751 35.3125 36.2501 36.875 40.9376C30.625 42.1876 25.9375 42.1876 21.875 40.0001C18.125 38.1251 14.6875 34.0626 12.5 26.8751C21.25 25.3126 26.25 26.8751 29.6875 29.3751Z" stroke="#003471" stroke-width="3" stroke-linecap="round" stroke-linejoin="round"/>
<path d="M44.0623 18.75C41.6798 22.4736 40.4813 26.8317 40.6248 31.25C46.5623 30.9375 50.9373 29.375 54.0623 26.875C57.1873 23.75 59.0623 19.6875 59.3748 12.5C50.9373 12.8125 46.8748 15.625 44.0623 18.75Z" stroke="#003471" stroke-width="3" stroke-linecap="round" stroke-linejoin="round"/>
</svg>
