<svg width="75" height="75" viewBox="0 0 75 75" fill="none" xmlns="http://www.w3.org/2000/svg">
<path d="M45.9377 19.6875C45.3651 20.2717 45.0444 21.0571 45.0444 21.875C45.0444 22.693 45.3651 23.4784 45.9377 24.0625L50.9377 29.0625C51.5219 29.6351 52.3072 29.9558 53.1252 29.9558C53.9432 29.9558 54.7286 29.6351 55.3127 29.0625L67.094 17.2813C68.6653 20.7537 69.1411 24.6226 68.4579 28.3724C67.7747 32.1221 65.9649 35.5745 63.2698 38.2697C60.5747 40.9648 57.1223 42.7745 53.3725 43.4577C49.6228 44.1409 45.7539 43.6651 42.2815 42.0938L20.6877 63.6875C19.4445 64.9307 17.7584 65.6292 16.0002 65.6292C14.2421 65.6292 12.5559 64.9307 11.3127 63.6875C10.0695 62.4443 9.37109 60.7582 9.37109 59C9.37109 57.2419 10.0695 55.5557 11.3127 54.3125L32.9065 32.7188C31.3351 29.2463 30.8593 25.3774 31.5425 21.6277C32.2257 17.878 34.0355 14.4255 36.7306 11.7304C39.4257 9.0353 42.8782 7.22556 46.6279 6.54235C50.3776 5.85914 54.2465 6.33492 57.719 7.90628L45.969 19.6563L45.9377 19.6875Z" stroke="#003471" stroke-width="3" stroke-linecap="round" stroke-linejoin="round"/>
</svg>
