<svg width="75" height="75" viewBox="0 0 75 75" fill="none" xmlns="http://www.w3.org/2000/svg">
<path d="M18.75 59.375C25.6536 59.375 31.25 53.7786 31.25 46.875C31.25 39.9714 25.6536 34.375 18.75 34.375C11.8464 34.375 6.25 39.9714 6.25 46.875C6.25 53.7786 11.8464 59.375 18.75 59.375Z" stroke="#003471" stroke-width="3" stroke-linecap="round" stroke-linejoin="round"/>
<path d="M56.25 59.375C63.1536 59.375 68.75 53.7786 68.75 46.875C68.75 39.9714 63.1536 34.375 56.25 34.375C49.3464 34.375 43.75 39.9714 43.75 46.875C43.75 53.7786 49.3464 59.375 56.25 59.375Z" stroke="#003471" stroke-width="3" stroke-linecap="round" stroke-linejoin="round"/>
<path d="M43.75 46.875C43.75 45.2174 43.0915 43.6277 41.9194 42.4556C40.7473 41.2835 39.1576 40.625 37.5 40.625C35.8424 40.625 34.2527 41.2835 33.0806 42.4556C31.9085 43.6277 31.25 45.2174 31.25 46.875" stroke="#003471" stroke-width="3" stroke-linecap="round" stroke-linejoin="round"/>
<path d="M7.8125 40.625L15.625 21.875C17.8125 17.8125 20 15.625 25 15.625" stroke="#003471" stroke-width="3" stroke-linecap="round" stroke-linejoin="round"/>
<path d="M67.1875 40.625L59.375 21.875C57.1875 17.8125 54.6875 15.625 50 15.625" stroke="#003471" stroke-width="3" stroke-linecap="round" stroke-linejoin="round"/>
</svg>
