<svg width="75" height="75" viewBox="0 0 75 75" fill="none" xmlns="http://www.w3.org/2000/svg">
<path d="M34.375 65.625C34.375 57.8125 40.625 57.8125 40.625 50" stroke="#003471" stroke-width="3" stroke-linecap="round" stroke-linejoin="round"/>
<path d="M50 65.625C50 57.8125 56.25 57.8125 56.25 50" stroke="#003471" stroke-width="3" stroke-linecap="round" stroke-linejoin="round"/>
<path d="M59.375 25L56.875 34.375C56.6977 35.2443 56.2298 36.0274 55.5482 36.5954C54.8667 37.1634 54.012 37.4824 53.125 37.5H21.875C20.988 37.4824 20.1333 37.1634 19.4518 36.5954C18.7702 36.0274 18.3023 35.2443 18.125 34.375L15.625 25" stroke="#003471" stroke-width="3" stroke-linecap="round" stroke-linejoin="round"/>
<path d="M65.625 9.375C66.4538 9.375 67.2487 9.70424 67.8347 10.2903C68.4208 10.8763 68.75 11.6712 68.75 12.5V18.75C68.75 20.4076 68.0915 21.9973 66.9194 23.1694C65.7473 24.3415 64.1576 25 62.5 25H12.5C10.8424 25 9.25268 24.3415 8.08058 23.1694C6.90848 21.9973 6.25 20.4076 6.25 18.75V12.5C6.25 11.6712 6.57924 10.8763 7.16529 10.2903C7.75134 9.70424 8.5462 9.375 9.375 9.375H65.625Z" stroke="#003471" stroke-width="3" stroke-linecap="round" stroke-linejoin="round"/>
<path d="M18.75 65.625C18.75 57.8125 25 57.8125 25 50" stroke="#003471" stroke-width="3" stroke-linecap="round" stroke-linejoin="round"/>
</svg>
