<svg width="75" height="75" viewBox="0 0 75 75" fill="none" xmlns="http://www.w3.org/2000/svg">
<path d="M42.1875 21.875C43.0504 21.875 43.75 21.1754 43.75 20.3125C43.75 19.4496 43.0504 18.75 42.1875 18.75C41.3246 18.75 40.625 19.4496 40.625 20.3125C40.625 21.1754 41.3246 21.875 42.1875 21.875Z" fill="#003471" stroke="#003471" stroke-width="3.5" stroke-linecap="round" stroke-linejoin="round"/>
<path d="M54.6875 34.375C55.5504 34.375 56.25 33.6754 56.25 32.8125C56.25 31.9496 55.5504 31.25 54.6875 31.25C53.8246 31.25 53.125 31.9496 53.125 32.8125C53.125 33.6754 53.8246 34.375 54.6875 34.375Z" fill="#003471" stroke="#003471" stroke-width="3.5" stroke-linecap="round" stroke-linejoin="round"/>
<path d="M26.5625 25C27.4254 25 28.125 24.3004 28.125 23.4375C28.125 22.5746 27.4254 21.875 26.5625 21.875C25.6996 21.875 25 22.5746 25 23.4375C25 24.3004 25.6996 25 26.5625 25Z" fill="#003471" stroke="#003471" stroke-width="3.5" stroke-linecap="round" stroke-linejoin="round"/>
<path d="M20.3125 40.625C21.1754 40.625 21.875 39.9254 21.875 39.0625C21.875 38.1996 21.1754 37.5 20.3125 37.5C19.4496 37.5 18.75 38.1996 18.75 39.0625C18.75 39.9254 19.4496 40.625 20.3125 40.625Z" fill="#003471" stroke="#003471" stroke-width="3.5" stroke-linecap="round" stroke-linejoin="round"/>
<path d="M37.5 6.25C20.3125 6.25 6.25 20.3125 6.25 37.5C6.25 54.6875 20.3125 68.75 37.5 68.75C40.3937 68.75 42.65 66.4188 42.65 63.475C42.65 62.1094 42.0875 60.8656 41.2844 59.9594C40.3781 59.0563 39.9156 57.9219 39.9156 56.4438C39.9038 55.756 40.0305 55.0728 40.2883 54.4351C40.546 53.7973 40.9295 53.218 41.4159 52.7316C41.9023 52.2452 42.4817 51.8617 43.1195 51.6039C43.7572 51.3461 44.4403 51.2194 45.1281 51.2312H51.3656C60.9 51.2312 68.725 43.4094 68.725 33.875C68.6406 18.7875 54.5656 6.25 37.5 6.25Z" stroke="#003471" stroke-width="3" stroke-linecap="round" stroke-linejoin="round"/>
</svg>
