<svg width="75" height="75" viewBox="0 0 75 75" fill="none" xmlns="http://www.w3.org/2000/svg">
<path d="M21.875 31.25H18.75C15.4348 31.25 12.2554 29.933 9.91117 27.5888C7.56696 25.2446 6.25 22.0652 6.25 18.75C6.25 17.9212 6.57924 17.1263 7.16529 16.5403C7.75134 15.9542 8.5462 15.625 9.375 15.625H21.875" stroke="#003471" stroke-width="3" stroke-linecap="round" stroke-linejoin="round"/>
<path d="M21.875 15.625C21.875 14.7962 22.2042 14.0013 22.7903 13.4153C23.3763 12.8292 24.1712 12.5 25 12.5H65.625C66.4538 12.5 67.2487 12.8292 67.8347 13.4153C68.4208 14.0013 68.75 14.7962 68.75 15.625C68.75 21.4266 66.4453 26.9906 62.343 31.093C58.2406 35.1953 52.6766 37.5 46.875 37.5H25C24.1712 37.5 23.3763 37.1708 22.7903 36.5847C22.2042 35.9987 21.875 35.2038 21.875 34.375V15.625Z" stroke="#003471" stroke-width="3" stroke-linecap="round" stroke-linejoin="round"/>
<path d="M28.125 37.5V53.125" stroke="#003471" stroke-width="3" stroke-linecap="round" stroke-linejoin="round"/>
<path d="M46.875 37.5V53.125" stroke="#003471" stroke-width="3" stroke-linecap="round" stroke-linejoin="round"/>
<path d="M15.625 62.5C15.625 60.0136 16.6127 57.629 18.3709 55.8709C20.129 54.1127 22.5136 53.125 25 53.125H50C52.4864 53.125 54.871 54.1127 56.6291 55.8709C58.3873 57.629 59.375 60.0136 59.375 62.5C59.375 63.3288 59.0458 64.1237 58.4597 64.7097C57.8737 65.2958 57.0788 65.625 56.25 65.625H18.75C17.9212 65.625 17.1263 65.2958 16.5403 64.7097C15.9542 64.1237 15.625 63.3288 15.625 62.5Z" stroke="#003471" stroke-width="3" stroke-linecap="round" stroke-linejoin="round"/>
</svg>
