<svg width="75" height="75" viewBox="0 0 75 75" fill="none" xmlns="http://www.w3.org/2000/svg">
<path d="M46.8748 37.5L20.7092 63.6656C19.466 64.9088 17.7799 65.6072 16.0217 65.6072C14.2636 65.6072 12.5774 64.9088 11.3342 63.6656C10.091 62.4224 9.39258 60.7363 9.39258 58.9781C9.39258 57.22 10.091 55.5338 11.3342 54.2906L37.4998 28.125" stroke="#003471" stroke-width="3" stroke-linecap="round" stroke-linejoin="round"/>
<path d="M56.25 46.875L68.75 34.375" stroke="#003471" stroke-width="3" stroke-linecap="round" stroke-linejoin="round"/>
<path d="M67.1875 35.9375L61.2063 29.9563C60.0341 28.7844 59.3754 27.195 59.375 25.5375V21.875L52.3125 14.8125C48.8267 11.3287 44.1094 9.35737 39.1813 9.325L28.125 9.25L31 11.8125C33.0421 13.6231 34.6772 15.8459 35.7976 18.3345C36.918 20.8231 37.4982 23.5209 37.5 26.25V31.25L43.75 37.5H47.4125C49.07 37.5004 50.6594 38.1591 51.8313 39.3313L57.8125 45.3125" stroke="#003471" stroke-width="3" stroke-linecap="round" stroke-linejoin="round"/>
</svg>
