<svg width="75" height="75" viewBox="0 0 75 75" fill="none" xmlns="http://www.w3.org/2000/svg">
<path d="M9.375 68.75H46.875" stroke="#003471" stroke-width="3" stroke-linecap="round" stroke-linejoin="round"/>
<path d="M12.5 28.125H43.75" stroke="#003471" stroke-width="3" stroke-linecap="round" stroke-linejoin="round"/>
<path d="M43.75 68.75V12.5C43.75 10.8424 43.0915 9.25268 41.9194 8.08058C40.7473 6.90848 39.1576 6.25 37.5 6.25H18.75C17.0924 6.25 15.5027 6.90848 14.3306 8.08058C13.1585 9.25268 12.5 10.8424 12.5 12.5V68.75" stroke="#003471" stroke-width="3" stroke-linecap="round" stroke-linejoin="round"/>
<path d="M43.75 40.625H50C51.6576 40.625 53.2473 41.2835 54.4194 42.4556C55.5915 43.6277 56.25 45.2174 56.25 46.875V53.125C56.25 54.7826 56.9085 56.3723 58.0806 57.5444C59.2527 58.7165 60.8424 59.375 62.5 59.375C64.1576 59.375 65.7473 58.7165 66.9194 57.5444C68.0915 56.3723 68.75 54.7826 68.75 53.125V30.7187C68.7507 29.894 68.5881 29.0773 68.2716 28.3157C67.9552 27.5541 67.4912 26.8627 66.9062 26.2812L56.25 15.625" stroke="#003471" stroke-width="3" stroke-linecap="round" stroke-linejoin="round"/>
</svg>
