<svg width="75" height="75" viewBox="0 0 75 75" fill="none" xmlns="http://www.w3.org/2000/svg">
<path d="M23.4375 13.3438L51.5625 29.4375" stroke="#003471" stroke-width="3" stroke-linecap="round" stroke-linejoin="round"/>
<path d="M65.625 25.0001C65.6239 23.904 65.3346 22.8276 64.7861 21.8787C64.2376 20.9298 63.4492 20.1418 62.5 19.5938L40.625 7.09381C39.6749 6.54526 38.5971 6.25647 37.5 6.25647C36.4029 6.25647 35.3251 6.54526 34.375 7.09381L12.5 19.5938C11.5508 20.1418 10.7624 20.9298 10.2139 21.8787C9.66545 22.8276 9.37612 23.904 9.375 25.0001V50.0001C9.37612 51.0961 9.66545 52.1725 10.2139 53.1214C10.7624 54.0703 11.5508 54.8583 12.5 55.4063L34.375 67.9063C35.3251 68.4549 36.4029 68.7436 37.5 68.7436C38.5971 68.7436 39.6749 68.4549 40.625 67.9063L62.5 55.4063C63.4492 54.8583 64.2376 54.0703 64.7861 53.1214C65.3346 52.1725 65.6239 51.0961 65.625 50.0001V25.0001Z" stroke="#003471" stroke-width="3" stroke-linecap="round" stroke-linejoin="round"/>
<path d="M10.3125 21.875L37.5 37.5L64.6875 21.875" stroke="#003471" stroke-width="3" stroke-linecap="round" stroke-linejoin="round"/>
<path d="M37.5 68.75V37.5" stroke="#003471" stroke-width="3" stroke-linecap="round" stroke-linejoin="round"/>
</svg>
