<svg width="75" height="75" viewBox="0 0 75 75" fill="none" xmlns="http://www.w3.org/2000/svg">
<path d="M59.3755 34.375L34.3755 9.375L7.50047 36.25C6.35531 37.4183 5.71387 38.989 5.71387 40.625C5.71387 42.261 6.35531 43.8317 7.50047 45L23.7505 61.25C26.2505 63.75 30.0005 63.75 32.5005 61.25L59.3755 34.375Z" stroke="#003471" stroke-width="3" stroke-linecap="round" stroke-linejoin="round"/>
<path d="M15.625 6.25L31.25 21.875" stroke="#003471" stroke-width="3" stroke-linecap="round" stroke-linejoin="round"/>
<path d="M6.25 40.625H53.125" stroke="#003471" stroke-width="3" stroke-linecap="round" stroke-linejoin="round"/>
<path d="M68.75 62.5C68.75 64.1576 68.0915 65.7473 66.9194 66.9194C65.7473 68.0915 64.1576 68.75 62.5 68.75C60.8424 68.75 59.2527 68.0915 58.0806 66.9194C56.9085 65.7473 56.25 64.1576 56.25 62.5C56.25 57.5 61.5625 55 62.5 50C63.4375 55 68.75 57.5 68.75 62.5Z" stroke="#003471" stroke-width="3" stroke-linecap="round" stroke-linejoin="round"/>
</svg>
