<svg width="75" height="75" viewBox="0 0 75 75" fill="none" xmlns="http://www.w3.org/2000/svg">
<path d="M37.5 34.375V46.875" stroke="#003471" stroke-width="3" stroke-linecap="round" stroke-linejoin="round"/>
<path d="M43.75 40.625H31.25" stroke="#003471" stroke-width="3" stroke-linecap="round" stroke-linejoin="round"/>
<path d="M50 18.75V12.5C50 10.8424 49.3415 9.25268 48.1694 8.08058C46.9973 6.90848 45.4076 6.25 43.75 6.25H31.25C29.5924 6.25 28.0027 6.90848 26.8306 8.08058C25.6585 9.25268 25 10.8424 25 12.5V18.75" stroke="#003471" stroke-width="3" stroke-linecap="round" stroke-linejoin="round"/>
<path d="M56.25 18.75V62.5" stroke="#003471" stroke-width="3" stroke-linecap="round" stroke-linejoin="round"/>
<path d="M18.75 18.75V62.5" stroke="#003471" stroke-width="3" stroke-linecap="round" stroke-linejoin="round"/>
<path d="M62.5 18.75H12.5C9.04822 18.75 6.25 21.5482 6.25 25V56.25C6.25 59.7018 9.04822 62.5 12.5 62.5H62.5C65.9518 62.5 68.75 59.7018 68.75 56.25V25C68.75 21.5482 65.9518 18.75 62.5 18.75Z" stroke="#003471" stroke-width="3" stroke-linecap="round" stroke-linejoin="round"/>
</svg>
