<svg width="75" height="75" viewBox="0 0 75 75" fill="none" xmlns="http://www.w3.org/2000/svg">
<path d="M31.2503 6.25V29.7719C31.2512 30.7438 31.0255 31.7025 30.591 32.5719L14.7503 64.2187C14.5094 64.6968 14.3954 65.2288 14.4191 65.7636C14.4428 66.2985 14.6036 66.8182 14.8859 67.2731C15.1682 67.7279 15.5627 68.1026 16.0314 68.3613C16.5002 68.6199 17.0275 68.7537 17.5628 68.75H57.4378C57.9732 68.7537 58.5005 68.6199 58.9693 68.3613C59.438 68.1026 59.8325 67.7279 60.1148 67.2731C60.3971 66.8182 60.5579 66.2985 60.5816 65.7636C60.6053 65.2288 60.4913 64.6968 60.2503 64.2187L44.4097 32.5719C43.9752 31.7025 43.7494 30.7438 43.7503 29.7719V6.25" stroke="#003471" stroke-width="3" stroke-linecap="round" stroke-linejoin="round"/>
<path d="M26.5625 6.25H48.4375" stroke="#003471" stroke-width="2" stroke-linecap="round" stroke-linejoin="round"/>
<path d="M21.875 50H53.125" stroke="#003471" stroke-width="3" stroke-linecap="round" stroke-linejoin="round"/>
</svg>
