<svg width="75" height="75" viewBox="0 0 75 75" fill="none" xmlns="http://www.w3.org/2000/svg">
<path d="M31.25 6.25V29.0938" stroke="#003471" stroke-width="3" stroke-linecap="round" stroke-linejoin="round"/>
<path d="M43.75 29.0625V6.21875" stroke="#003471" stroke-width="3" stroke-linecap="round" stroke-linejoin="round"/>
<path d="M26.5625 6.25H48.4375" stroke="#003471" stroke-width="2" stroke-linecap="round" stroke-linejoin="round"/>
<path d="M43.75 29.0625C48.3542 30.5514 52.2756 33.635 54.8082 37.7582C57.3408 41.8814 58.3183 46.7733 57.5647 51.5532C56.811 56.333 54.3758 60.6868 50.6973 63.8307C47.0189 66.9746 42.3389 68.7021 37.5 68.7021C32.6611 68.7021 27.9812 66.9746 24.3028 63.8307C20.6243 60.6868 18.1891 56.333 17.4354 51.5532C16.6818 46.7733 17.6593 41.8814 20.1919 37.7582C22.7245 33.635 26.6459 30.5514 31.25 29.0625" stroke="#003471" stroke-width="3" stroke-linecap="round" stroke-linejoin="round"/>
<path d="M17.25 50H57.75" stroke="#003471" stroke-width="3" stroke-linecap="round" stroke-linejoin="round"/>
</svg>
