<svg width="75" height="75" viewBox="0 0 75 75" fill="none" xmlns="http://www.w3.org/2000/svg">
<path d="M21.875 50.9375C28.75 50.9375 34.375 45.2187 34.375 38.2812C34.375 34.6562 32.5937 31.2188 29.0312 28.3125C25.4687 25.4063 22.7812 21.0938 21.875 16.5625C20.9688 21.0938 18.3125 25.4375 14.7188 28.3125C11.125 31.1875 9.375 34.6875 9.375 38.2812C9.375 45.2187 15 50.9375 21.875 50.9375Z" stroke="#003471" stroke-width="3" stroke-linecap="round" stroke-linejoin="round"/>
<path d="M39.25 20.625C41.3992 17.191 42.9228 13.4033 43.75 9.4375C45.3125 17.25 50 24.75 56.25 29.75C62.5 34.75 65.625 40.6875 65.625 46.9375C65.6429 51.2572 64.3777 55.4849 61.99 59.0847C59.6022 62.6844 56.1994 65.4942 52.2129 67.1578C48.2264 68.8213 43.8357 69.2638 39.5974 68.429C35.3591 67.5942 31.4642 65.5198 28.4062 62.4687" stroke="#003471" stroke-width="3" stroke-linecap="round" stroke-linejoin="round"/>
</svg>
